# xmcd
#
# Track frame offsets:
#	150
#	28268
#	49513
#	74248
#	101179
#	127733
#	148277
#	167112
#	191257
#	211674
#	230731
#	246820
#	271735
#	288115
#	303744
#	326343
#
# Disc length: 4652 seconds
#
# Revision: 1
# Processed by: cddbd v1.5.2PL0 Copyright (c) Steve Scherf et al.
# Submitted via: audiograbber 1.83.01
#
DISCID=ee122a10
DTITLE=Mark Knopfler - Greatest Hits - CD 2/2
DYEAR=2015
DGENRE=Blues
TTITLE0=Privateering
TTITLE1=Cleaning My Gun
TTITLE2=Sailing To Philadelphia
TTITLE3=Rudiger
TTITLE4=5:15 am
TTITLE5=Hard Shoulder
TTITLE6=The Ragpicker's Dream
TTITLE7=Imelda
TTITLE8=Boom, Like That
TTITLE9=Beachcombing
TTITLE10=Hill Farmer's Blues
TTITLE11=Silvertown Blues
TTITLE12=Monteleone
TTITLE13=Hard Cases
TTITLE14=You Don't Know You're Born
TTITLE15=Going Home: Theme of the Local Hero
EXTD=
EXTT0=
EXTT1=
EXTT2=
EXTT3=
EXTT4=
EXTT5=
EXTT6=
EXTT7=
EXTT8=
EXTT9=
EXTT10=
EXTT11=
EXTT12=
EXTT13=
EXTT14=
EXTT15=
PLAYORDER=
